<?xml version="1.0" encoding="UTF-8"?>
<svg id="katman_1" xmlns="http://www.w3.org/2000/svg" version="1.1" viewBox="0 0 26 24">
  <!-- Generator: Adobe Illustrator 29.7.1, SVG Export Plug-In . SVG Version: 2.1.1 Build 8)  -->
  <defs>
    <style>
      .st0 {
        stroke-miterlimit: 10;
      }

      .st0, .st1 {
        fill: none;
        stroke: #e30076;
        stroke-width: 1.4px;
      }

      .st1 {
        stroke-linecap: round;
        stroke-linejoin: round;
      }
    </style>
  </defs>
  <path class="st0" d="M13.03,12.59l-3.63-5.9s-2.58-4.01-6.53-2.47c-3.27,1.27-.59,5.15-.59,5.15,0,0,2.89,4.04,10.74,3.23Z"/>
  <path class="st0" d="M13.03,12.59l3.63-5.9s2.58-4.01,6.53-2.47c3.27,1.27.59,5.15.59,5.15,0,0-2.89,4.04-10.74,3.23Z"/>
  <path class="st0" d="M9.56,6.85s-.23-3.74,3.44-3.88c.72-.03,1.29.13,1.76.39,1.73.99,1.91,3.49,1.91,3.49"/>
  <path class="st1" d="M17.35.98s-1.04.27-2.6,2.39"/>
  <path class="st1" d="M8.78.98s1.91,1.11,2.49,2.39"/>
  <path class="st1" d="M9.69,12.7s3.25.87,6.36,0"/>
  <path class="st1" d="M17.65,15.55c-4.49,1.57-8.16.49-9.48-.03"/>
  <path class="st1" d="M9.36,18.97s3.89.54,7.3,0"/>
  <path class="st1" d="M18.33,12.37c-.05.84-.29,2.61-.29,2.61-.83,5.6-5.06,7.9-5.06,7.9-4.33-2.88-4.98-7.9-4.98-7.9,0,0-.38-.87-.36-2.63"/>
  <path class="st1" d="M8.09,15.49"/>
</svg>